<svg id="Layer_1" data-name="Layer 1" xmlns="http://www.w3.org/2000/svg" width="182.07" height="73" viewBox="0 0 182.07 73"><defs><style>.cls-1{fill:#c6c6c6;}.cls-2{fill:#f8b142;}.cls-3{fill:#52b65f;}.cls-4{fill:#d02027;}.cls-5{fill:#231f20;}</style></defs><path class="cls-1" d="M151.6,72.19H36.32A30.47,30.47,0,0,1,5.85,41.72h0A30.47,30.47,0,0,1,36.32,11.25H151.6a30.47,30.47,0,0,1,30.47,30.47h0A30.47,30.47,0,0,1,151.6,72.19Z"/><path d="M157.33,73a.77.77,0,0,1-.36-.09c-3.19-1.57-13.18-4.55-28.22-4.55h-111A17.79,17.79,0,0,1,0,50.59v-27A17.79,17.79,0,0,1,17.77,5.8h4.42a.81.81,0,0,1,.81.81.82.82,0,0,1-.81.82H17.77A16.17,16.17,0,0,0,1.62,23.57v27A16.17,16.17,0,0,0,17.77,66.74h111c19.22,0,28.55,4.53,28.94,4.72a.82.82,0,0,1,.37,1.09A.83.83,0,0,1,157.33,73Z"/><path d="M160.07,68.36h-2.74a.81.81,0,0,1,0-1.62h2.74a16.17,16.17,0,0,0,16.15-16.15v-27A16.17,16.17,0,0,0,160.07,7.43H43c-17,0-21.31-5.9-21.48-6.15a.8.8,0,0,1,.2-1.13.8.8,0,0,1,1.12.19C22.91.41,27,5.8,43,5.8H160.07a17.79,17.79,0,0,1,17.77,17.77v27A17.79,17.79,0,0,1,160.07,68.36Z"/><ellipse class="cls-2" cx="155.83" cy="31.74" rx="6.76" ry="4.4" transform="translate(23.2 119.48) rotate(-45)"/><ellipse class="cls-3" cx="137.82" cy="32.65" rx="7.81" ry="5.05" transform="translate(-3.28 45) rotate(-18.33)"/><ellipse class="cls-3" cx="151.36" cy="51.87" rx="7.81" ry="5.05" transform="matrix(0.95, -0.31, 0.31, 0.95, -8.63, 50.23)"/><ellipse class="cls-4" cx="133.65" cy="57.25" rx="5.12" ry="5.81" transform="translate(-1.34 111.28) rotate(-45)"/><path class="cls-5" d="M20.51,59.8c0-2.17,0-4.1-.07-5.79l-.13-5.84V42.9c0-1.55-.06-3.31-.06-5.26q0-8.7-.33-16.11l-.06-2.34q-.2-3.83-.2-6.24l.2-.26a1.44,1.44,0,0,1,.26-.32.4.4,0,0,1,.32-.26A1.19,1.19,0,0,1,20.9,12a8.3,8.3,0,0,1,4.12,1,8.53,8.53,0,0,1,3,2.86,14.79,14.79,0,0,1,2.28,8.12,20.46,20.46,0,0,1-.94,6,17.4,17.4,0,0,1-2.83,5.52,7.14,7.14,0,0,1-4.35,3.12l.13,7.21.13,3.51q.25,6.24.26,10.66a3,3,0,0,1-.3,1.52,1.19,1.19,0,0,1-1.13.49C20.77,62.07,20.51,61.31,20.51,59.8Zm2.86-24a2.22,2.22,0,0,0,.45-.52l.46-.46A14.37,14.37,0,0,0,28.5,24.19a16.06,16.06,0,0,0-1.43-6.75,6.09,6.09,0,0,0-2.27-2.57,6.44,6.44,0,0,0-3.51-.94q0,3.7.39,11.11t.39,11.11l.13.13A2.43,2.43,0,0,0,23.37,35.76Z"/><path class="cls-5" d="M46.13,62a1.82,1.82,0,0,1-.33-1c-.34-2.72-.54-4.41-.62-5.07l-.28-2.23a12.27,12.27,0,0,0-2.78-.28l-2-.11a18.17,18.17,0,0,0-2-.17.34.34,0,0,0-.39.28c0,.11,0,.17-.05.17l-.11,1.11c0,.67-.25,2-.62,4A9.86,9.86,0,0,1,36.32,61c-.29.63-.57,1-.83,1a1.2,1.2,0,0,1-.73-.31.84.84,0,0,1-.39-.64l.06-.17.06-.16q1-4,1.67-7.86l.67-3.45.66-4.24.62-3.67c.18-1,.52-2.62,1-4.85.52-2.53.84-4.25,1-5.18,0-.11.11-.8.22-2.06q.22-2.13.39-3.12A5.45,5.45,0,0,1,41,24.57h.39a1.23,1.23,0,0,0,.39.06,1.4,1.4,0,0,0,1-.33,1,1,0,0,1,.69.25.71.71,0,0,1,.31.58,55.34,55.34,0,0,0,.39,6.13c.15,1.19.26,2.17.33,2.95q.62,7.18,3.12,27v.17a.9.9,0,0,1-.44.83A1.84,1.84,0,0,1,46.13,62Zm-1.5-9.84q-.57-8-2.12-23.68l-3,14.88a57.11,57.11,0,0,0-1.28,8.08c0,.18.7.35,2.12.5a35.57,35.57,0,0,0,3.73.22Z"/><path class="cls-5" d="M66.1,61.57a4,4,0,0,1-.36-1,2.47,2.47,0,0,0-.22-.78l0-.17a35,35,0,0,0-1.89-6.41l-1-2.9a25.21,25.21,0,0,1-1.06-2.84l-.45-1.33q-5-15.49-6.29-16.77a13.92,13.92,0,0,0-.45,3.9q0,1.27.06,2.22l0,2.18,0,1.33c0,.41-.06.86-.06,1.34a18.38,18.38,0,0,0,.11,2.12l.11,1.78h-.16q0,9.3.39,10.25v5a2.71,2.71,0,0,1,.22,1.17,1.12,1.12,0,0,1-.31.78,1,1,0,0,1-.75.33c-.78,0-1.17-1-1.17-3L53,57a13.1,13.1,0,0,0,.11-1.84c0-1.78-.05-4.46-.16-8s-.17-6.24-.17-8c0-1.08.05-2.73.17-5s.16-3.83.16-4.91v-.72c0-1.82.34-3,1-3.57l.16.17.56-.11a1.19,1.19,0,0,1,.5.33.71.71,0,0,1,.23.51l.11.33a.83.83,0,0,0,.05.28,67.48,67.48,0,0,0,4,11.09q3.18,7.52,4,10c.37,1.3.67,2.45.89,3.45a27.4,27.4,0,0,0,2.51,7.3l.11-.17a303.07,303.07,0,0,0,1.28-30.36l0-.67a3.52,3.52,0,0,1-.06-.72q0-1.17.78-1.17a1,1,0,0,1,.86.5,1.85,1.85,0,0,1,.37,1.11v3.74l-.28.44q0,5.29-.62,17.38T68.3,61.51l-.94.23v0l-.06,0-.56.16A.69.69,0,0,1,66.1,61.57Z"/><path class="cls-5" d="M80.73,60.9l-.06-2.06c0-.6,0-1.26,0-2a6.41,6.41,0,0,1,0-.94l.06-1a4.94,4.94,0,0,0-.23-1.33q0-3.73-.55-13.88-.56-9.8-.62-13.31a40.41,40.41,0,0,1-4.62-.17C74,26,73.6,25.71,73.6,25.3a1,1,0,0,1,1.05-.61c1.12,0,2.73.07,4.85.22,1.93.18,3.55.28,4.85.28h1.17l1.17-.06c.67,0,1,.24,1,.73a.58.58,0,0,1-.36.52,1.68,1.68,0,0,1-.86.2c-.75,0-1.53,0-2.34-.11l-2.4-.11c-.15,0-.22.05-.22.16a5.05,5.05,0,0,0-.06,1.06q0,5.42.67,16.38.61,11.37.61,16.33a.89.89,0,0,1-.47.72,1.64,1.64,0,0,1-.92.34Z"/><path class="cls-5" d="M101,62.35a10.56,10.56,0,0,1-1.45-3.85q-.78-3.12-1.45-7a52.72,52.72,0,0,0-1.28-6.29c-.45-1.86-.87-2.79-1.28-2.79h-.17q-1.23,0-1.23.78,0,4,.45,12.2a37.46,37.46,0,0,0,.5,5.85l-.44,1h-.78l-.45-.44q-.89-25.74-.89-35.1a5.49,5.49,0,0,1,.08-1,1.75,1.75,0,0,1,.36-.72.82.82,0,0,1,.78-.39,7,7,0,0,1,4.57,1.39,4.87,4.87,0,0,1,1.73,4V34a8.23,8.23,0,0,1-.7,2.84,25.71,25.71,0,0,1-1.53,3.29l-.72,1.39q.61,2.85,2.42,10.22t2,7.83a1,1,0,0,1,.14.28,3.55,3.55,0,0,0,.36.67,3.12,3.12,0,0,1,.39,1.34c0,.52-.2.78-.61.78ZM96.33,40a8.09,8.09,0,0,0,1.33-2.73,22.4,22.4,0,0,0,.9-5.4,13.61,13.61,0,0,0-.14-2.12,10.56,10.56,0,0,0-.48-1.78c-.44-1.3-1.5-2-3.17-2-.19,0-.34.16-.45.47a3,3,0,0,0-.17,1q0,3.72.12,6.74t0,6.74l.11.11A2.4,2.4,0,0,0,96.33,40Z"/><path class="cls-5" d="M110.76,62.29a1,1,0,0,1-.34-.39c.34-.89.5-4.14.5-9.75,0-1.07,0-2.62-.16-4.62l-.28-4-.34-.72.17-.67c-.22-.52-.56-1.39-1-2.62s-.89-2.47-1.34-3.73q-2-5.3-2.62-7.63a18.61,18.61,0,0,1-.5-2.07l.78-.61c.37.08.91,1.26,1.62,3.57.55,1.63,1.06,3.25,1.5,4.84l.67,2.12c.67,2.3,1.15,3.49,1.45,3.57l.22-1-.11-.27a13.39,13.39,0,0,0,1.11-4c.49-2.6,1-4.79,1.4-6.57.48-2.08,1-3.12,1.45-3.12a.83.83,0,0,1,.5.16.47.47,0,0,1,.22.39A48.47,48.47,0,0,1,114,31.82q-.84,2.73-1.39,5.12a22.26,22.26,0,0,0-.67,5.07,2.3,2.3,0,0,1,.28,1,2.69,2.69,0,0,1-.17.78,2.77,2.77,0,0,0-.17.84c0,.18.08,1,.22,2.5a18,18,0,0,1,.23,2.57c0,1.63,0,3.1.05,4.4v4.68c0,2.52-.39,3.79-1.17,3.79A.81.81,0,0,1,110.76,62.29Z"/><path d="M166.54,39.7A4.92,4.92,0,0,1,162,34.47q0-4.38,0-8.78c0-.47-.1-1.05.13-1.38s.8-.12,1.23-.14.71-.21.72-.62-.34-.64-.75-.67-.88,0-1.31,0a.86.86,0,0,1-.51-.31,27.46,27.46,0,0,0-2-2.5c-1.36-1.3-2.51-2.66-2.56-4.65,0-.58-.33-.78-.89-.77-.9,0-1.8,0-2.7,0h-4.76c-2.37,0-4.75,0-7.12,0h-7.5c-1.59,0-1.62,0-1.89,1.54a6.59,6.59,0,0,1-2.33,3.73,6.92,6.92,0,0,0-2.12,2.67h0c-.16.23-1.16.2-1.59.22s-.71.21-.72.63.34.64.75.66.86,0,1.28,0v.07a11.54,11.54,0,0,0-.3,1.41c-.08.87,0,3.65,0,3.65v1.68l0-.06v2.37c0,.93,0,1.86,0,2.8,0,.43.21.73.66.73s.59-.32.63-.71V25.47h0l0-.75-1.14.73,1.14-.73c-.11-.48.22-.56.76-.56,3.81,0,7.61,0,11.42,0,6.46,0,12.93,0,19.39,0,.53,0,.75.12.75.69,0,1.52,0,1.49-1.47,1.89a14.06,14.06,0,0,0-7.68,4.56,5.25,5.25,0,0,0-1.36,4.54,1.77,1.77,0,0,1,0,.45c-.87-.07-1.69-.17-2.51-.19a.74.74,0,0,0-.55.44,1,1,0,0,0,.33.7c.14.13.43.1.65.13l1.49.2.15.25a1.88,1.88,0,0,0-.45.22c-.58.44-1.14.9-1.7,1.37-.3.25-.4.61-.07.84a1.51,1.51,0,0,0,.86.11c.12,0,.22-.18.34-.27l1.73-1.33a9.68,9.68,0,0,1,0,2c0,.37.06.69.46.77a.59.59,0,0,0,.75-.56c.09-.65.17-1.31.24-2,0-.4.18-.49.56-.33a4.83,4.83,0,0,0,4,.05A20.14,20.14,0,0,0,159.23,37a15.46,15.46,0,0,0,1.37-1.16c0,1.5.11,2.89,0,4.26a10.19,10.19,0,0,1-2.2,5.2,11.38,11.38,0,0,1-6.39,4.5c-.49.12-.83.35-.69.9s.55.55,1,.43A11.83,11.83,0,0,0,156.57,49l.66-.49a7.37,7.37,0,0,1-2.49,4.57,9,9,0,0,1-7,1.75c-.28,0-.57-.07-.84-.12l-.66-.13c-.56-.12-1-.25-1.26-.32L143.8,55a8.46,8.46,0,0,0,1.8.76h0a6.74,6.74,0,0,0,2.34.46h.45a22.58,22.58,0,0,0,2.73-.13,8.57,8.57,0,0,0,5.81-3.48,10.72,10.72,0,0,0,1.79-5.09,2.42,2.42,0,0,1,.44-1.06,13.07,13.07,0,0,0,2.66-6.15c.07-.49.12-1,.19-1.55a2.87,2.87,0,0,1,.41.33A6.17,6.17,0,0,0,166.31,41c.56.07,1.11-.18,1.09-.55S167,39.76,166.54,39.7ZM160,22.83H129l-.13-.13c.44-.5.86-1,1.31-1.51.66-.72,1.37-1.39,2-2.13a4.58,4.58,0,0,0,1.06-2.54c.06-.46.24-.63.72-.61.64,0,1.28,0,1.91,0H152a3.79,3.79,0,0,0,.59,0c.87,0,1.75,0,2.62,0,.16,0,.45.18.47.31.27,2.12,1.63,3.52,3.1,4.88a20.07,20.07,0,0,1,1.37,1.54ZM160.6,33a1.19,1.19,0,0,1-.15.71,10.09,10.09,0,0,1-5,3.78,3.55,3.55,0,0,1-2.32,0,2.47,2.47,0,0,1-1.77-2,4.05,4.05,0,0,1,1.14-3.28c.46.63.86,1.19,1.28,1.74.13.18.28.43.47.48a1.15,1.15,0,0,0,.88,0,.83.83,0,0,0,.11-.8A7.89,7.89,0,0,0,154.1,32c-.79-.76-.82-.78,0-1.48.38-.31.8-.58,1.21-.86s.58-.18.82.19c.41.63.88,1.21,1.32,1.81a2.31,2.31,0,0,0,.2.24.76.76,0,0,0,1.11.13c.4-.32.27-.73,0-1.06-.39-.51-.84-1-1.25-1.46-.18-.21-.35-.44-.61-.76l3.6-1.07a3,3,0,0,1,.1.51C160.64,29.8,160.63,31.39,160.6,33Z"/><path d="M161.31,47.58c-.61,0-.65.47-.65.92q0,3.53,0,7a8.3,8.3,0,0,1-.13,1.73,5.28,5.28,0,0,1-3.5,4,6.17,6.17,0,0,1-1.89.34h-3.48c-3.36,0-6.73,0-10.1,0h-.84c-.24,0-.48,0-.8,0,.05-.24.09-.41.11-.59,0-.38.09-.76.13-1.13h0a3.32,3.32,0,0,0-.13-2.14,6.68,6.68,0,0,0-2.77-4.14c-.4-.28-.82-.53-1.42-.91a13.17,13.17,0,0,1,1.86-1.25c.63-.28,1.36-.3,2-.53.3-.1.7-.41.73-.67.05-.44-.37-.63-.79-.56a10.24,10.24,0,0,0-2.16.46,19.34,19.34,0,0,0-2.24,1.25c-.09-.21-.18-.41-.26-.62a6.5,6.5,0,0,0-2.5-3c-.36-.24-.73-.35-1,.08s0,.76.33,1a5.34,5.34,0,0,1,2,2.4,8.34,8.34,0,0,1,.34,1.14,7.54,7.54,0,0,0-5.68,1.72c0-.29-.07-.43-.07-.57q0-4.26,0-8.54a2.58,2.58,0,0,1,.07-.68,12.62,12.62,0,0,1,8.26-9.38,8,8,0,0,0,1.17-.4.84.84,0,0,0,.34-.7c0-.2-.36-.38-.59-.48s-.37,0-.55.06a11.45,11.45,0,0,0-4.47,2.25l-.56.41-.13-.13a7.63,7.63,0,0,1,3.15-5.18c2.86-1.91,6-1.94,9.13-.94,1.61.51,1.36.33.95,1.78a7.4,7.4,0,0,1-4.94,5.35c-1.44.47-2.93.75-4.39,1.17-.89.26-1.76.59-2.63.94a.58.58,0,0,0-.3.88.63.63,0,0,0,.85.28c1.35-.42,2.71-.83,4.09-1.19a15.54,15.54,0,0,0,5-1.89c2.45-1.66,3.49-4.14,4-6.93a.94.94,0,0,0-.33-.73,3.3,3.3,0,0,0-1-.55,13.15,13.15,0,0,0-6.45-.93A9.8,9.8,0,0,0,133.9,30a9.19,9.19,0,0,0-3.31,6.28,4.52,4.52,0,0,1-1,2.36,11.44,11.44,0,0,0-2.54,7.39,2.66,2.66,0,0,1-.07.39c-.09,0-.15,0-.17,0l-.36-.34a5.92,5.92,0,0,0-4.06-1.77c-.43,0-.77.17-.79.61s.32.65.75.67a5,5,0,0,1,4.72,5.18q-.06,2.84,0,5.67a6.47,6.47,0,0,0,2.2,4.71,6.63,6.63,0,0,0,4.54,1.72H136a1.19,1.19,0,0,0,.33,0c.54,0,1.08,0,1.62,0h12.8l.09,0c.64.06,3.06,0,4.28,0q.36,0,.72,0a6.66,6.66,0,0,0,6.09-6.62c0-2.56,0-5.11,0-7.67C162,48.07,161.87,47.61,161.31,47.58ZM139,59.79a.78.78,0,0,0-.05.14h0a2.93,2.93,0,0,0-.13.68c-.1.92-.28,1-1.19,1a1.27,1.27,0,0,0-.28,0h0l-1.77-.06h0c-.86,0-1.74,0-2.59-.11a5.4,5.4,0,0,1-4.6-4.74,1.62,1.62,0,0,1,.65-1.47,5.64,5.64,0,0,1,6-1.42,5.45,5.45,0,0,1,3.76,4.42c0,.24.09.49.14.78A3.79,3.79,0,0,1,139,59.79Z"/><path d="M153.14,46.73c.56-.13,1.12-.27,1.67-.43a4.29,4.29,0,0,0,1.34-.61.9.9,0,0,0,.28-.81.55.55,0,0,0-.85-.31,5.64,5.64,0,0,1-1,.38l-3.41.9h0a20.69,20.69,0,0,0-2.21.63,8.14,8.14,0,0,0-5.26,5.3h0a11.06,11.06,0,0,0-.4,1.33v0c-.08.39-.09.47-.09.47v.14c0,.13.33.92.32,1l.72-1.23a8.81,8.81,0,0,1,5.14-5.83l.4-.15h0Z"/><path d="M133,13.05h23c.49,0,.84-.14.82-.69s-.4-.6-.84-.6H150.9c-.84,0-1.68,0-2.52,0h-2.2c-1.14,0-2.27,0-3.41,0l-.33,0H133c-.48,0-.83.14-.81.69S132.56,13.05,133,13.05Z"/></svg>