<?xml version="1.0" encoding="utf-8"?>
<!-- Generator: Adobe Illustrator 24.2.3, SVG Export Plug-In . SVG Version: 6.00 Build 0)  -->
<svg version="1.1" id="Layer_1" xmlns="http://www.w3.org/2000/svg" xmlns:xlink="http://www.w3.org/1999/xlink" x="0px" y="0px"
	 viewBox="0 0 45.8 51.1" style="enable-background:new 0 0 45.8 51.1;" xml:space="preserve">
<path id="BOTTOM" d="M18.6,48.1c0-0.4,0.1-1.2-0.1-2.1c-0.3-1.6-1.3-3.2-2.8-4.1c-0.4-0.3-0.8-0.5-1.4-0.9c0.6-0.5,1.2-0.9,1.9-1.2
	c0.6-0.3,1.4-0.3,2-0.5c0.3-0.1,0.7-0.4,0.7-0.7c0.1-0.4-0.4-0.6-0.8-0.6c-0.7,0.1-1.5,0.2-2.2,0.5c-0.8,0.4-1.5,0.8-2.2,1.2
	c-0.1-0.2-0.2-0.4-0.3-0.6c-0.5-1.2-1.4-2.3-2.5-3c-0.4-0.2-0.7-0.3-1,0.1s0,0.8,0.3,1c0.9,0.6,1.6,1.4,2,2.4
	c0.1,0.4,0.3,0.8,0.3,1.1c-2-0.2-4.1,0.4-5.7,1.7c0-0.3-0.1-0.4-0.1-0.6c0-2.8,0-5.7,0-8.5c0-0.2,0-0.5,0.1-0.7
	c0.9-4.4,4-7.9,8.3-9.4c0.4-0.1,0.8-0.2,1.2-0.4c0.2-0.2,0.3-0.4,0.3-0.7c0-0.2-0.4-0.4-0.6-0.5s-0.4,0-0.6,0.1
	c-1.6,0.4-3.2,1.2-4.5,2.2l-0.6,0.4l-0.1-0.1c0.3-2.1,1.4-4,3.1-5.2c2.9-1.9,6-1.9,9.1-0.9c1.6,0.5,1.4,0.3,0.9,1.8
	c-0.6,2.5-2.5,4.6-4.9,5.3c-1.4,0.5-2.9,0.8-4.4,1.2c-0.9,0.3-1.8,0.6-2.6,0.9c-0.3,0.1-0.5,0.4-0.4,0.7c0,0.1,0,0.1,0.1,0.1
	c0.2,0.3,0.5,0.4,0.8,0.3c0,0,0,0,0,0c1.4-0.4,2.7-0.8,4.1-1.2c1.8-0.3,3.5-1,5-1.9c2.4-1.7,3.5-4.1,4-6.9c0-0.3-0.1-0.5-0.3-0.7
	c-0.3-0.2-0.6-0.4-1-0.5c-2-0.8-4.3-1.2-6.4-0.9c-1.9,0.2-3.7,0.9-5.2,2c-1.9,1.6-3.1,3.8-3.3,6.3c-0.1,0.9-0.4,1.7-1,2.4
	c-1.7,2.1-2.6,4.7-2.5,7.4c0,0.1,0,0.3-0.1,0.4c-0.1,0-0.2,0-0.2,0l-0.4-0.3c-1.1-1.1-2.5-1.7-4.1-1.8c-0.4,0-0.8,0.2-0.8,0.6
	s0.3,0.7,0.8,0.7C3.5,34,5.6,36.3,5.5,39c0,1.9,0,3.8,0,5.7c0,1.8,0.8,3.5,2.2,4.7c1.2,1.1,2.9,1.7,4.5,1.7h2.2c0.1,0,0.2,0,0.3,0
	c0.5,0,1.1,0,1.6,0h12.8h0.1c0.6,0.1,3.1,0,4.3,0c0.2,0,0.5,0,0.7,0c3.4-0.3,6.1-3.2,6.1-6.6c0-2.6,0-5.1,0-7.7c0.1-0.5-0.1-1-0.6-1
	c-0.6,0-0.6,0.5-0.6,0.9c0,2.4,0,4.7,0,7c0,0.6,0,1.2-0.1,1.7c-0.4,1.9-1.7,3.4-3.5,4c-0.6,0.2-1.2,0.3-1.9,0.3h-3.5
	c-3.4,0-6.7,0-10.1,0h-0.8c-0.2,0-0.5,0-0.8,0C18.3,49.8,18.5,48.5,18.6,48.1z M17.2,48.8c-0.1,0.9-0.3,1-1.2,1c-0.1,0-0.2,0-0.3,0
	l0,0L14,49.8l0,0c-0.9,0-1.7,0-2.6-0.1c-2.4-0.3-4.3-2.3-4.6-4.7c-0.1-0.6,0.2-1.1,0.6-1.5c1.5-1.6,3.9-2.2,6-1.4
	c2,0.6,3.6,2.6,3.8,4.4C17.3,47.4,17.3,47.9,17.2,48.8z"/>
<path id="CENTER" d="M44.9,27.9c-2.7-0.2-4.7-2.5-4.5-5.2c0-2.9,0-5.8,0-8.8c0-0.5-0.1-1,0.1-1.4c0.2-0.3,0.8-0.1,1.2-0.1
	s0.7-0.2,0.7-0.6s-0.3-0.6-0.8-0.7c-0.4,0-0.9,0-1.3,0c-0.2,0-0.4-0.1-0.5-0.3c-0.6-0.9-1.3-1.7-2-2.5c-1.4-1.3-2.5-2.7-2.6-4.7
	c0-0.6-0.3-0.8-0.9-0.8c-0.9,0-1.8,0-2.7,0H27c-2.4,0-4.8,0-7.1,0h-7.5c-1.6,0-1.6,0-1.9,1.5C9.8,5.8,9.2,7,8.2,8.2
	C7.5,9.1,6.7,9.9,6,10.8c-0.2,0.2-1.2,0.2-1.6,0.2c-0.4,0-0.7,0.2-0.7,0.6c0,0.4,0.3,0.6,0.7,0.7c0.4,0,0.5,0,1,0l0,1.5
	c-0.1,0.9,0,3.7,0,3.7v1.6v0.1v2.3c0,0.9,0,1.9,0,2.8c0,0.4,0.2,0.7,0.7,0.7s0.6-0.3,0.6-0.7V13.7V13c0-0.4,0.2-0.6,0.8-0.6
	c3.8,0,7.6,0,11.4,0c6.5,0,12.9,0,19.4,0c0.5,0,0.8,0.1,0.8,0.7c0,1.5,0,1.5-1.5,1.9c-3,0.6-5.7,2.2-7.7,4.6
	c-1.1,1.2-1.7,2.9-1.4,4.5c0,0.1,0,0.3,0,0.5c-0.9-0.1-1.7-0.2-2.5-0.2c-0.2,0-0.5,0.2-0.5,0.4c0,0.3,0.1,0.5,0.3,0.7
	c0.1,0.1,0.4,0.1,0.6,0.1l1.5,0.2l0.1,0.2c-0.2,0.1-0.3,0.1-0.5,0.2c-0.6,0.4-1.1,0.9-1.7,1.4c-0.3,0.2-0.4,0.6-0.1,0.8
	c0.3,0.1,0.6,0.2,0.9,0.1c0.1,0,0.2-0.2,0.3-0.3l1.7-1.3c0.1,0.7,0.1,1.3,0,2c0,0.4,0.1,0.7,0.5,0.8c0.3,0.1,0.6-0.1,0.7-0.4
	c0,0,0-0.1,0-0.2c0.1-0.6,0.2-1.3,0.2-2c0-0.4,0.2-0.5,0.6-0.3c1.3,0.6,2.7,0.6,4,0c1-0.5,1.9-1.1,2.8-1.7c0.5-0.4,0.9-0.7,1.4-1.2
	c0,1.5,0.1,2.9,0,4.3c-0.2,1.9-1,3.7-2.2,5.2c-1.5,2.2-3.8,3.8-6.4,4.5c-0.5,0.1-0.8,0.3-0.7,0.9c0.1,0.5,0.5,0.5,1,0.4
	c1.5-0.4,3-1.1,4.2-2.1l0.7-0.5c-0.2,1.8-1.1,3.4-2.5,4.6c-2,1.5-4.5,2.2-7,1.8c-0.3,0-0.6-0.1-0.8-0.1l-0.7-0.1
	c-0.5-0.1-0.8-0.2-1.1-0.3c-1.5-0.5-1.3-0.3-0.9-1.8c0.6-2.5,2.5-4.6,4.9-5.4c1.4-0.5,2.9-0.8,4.4-1.2c0.9-0.3,1.8-0.6,2.6-0.9
	c0.3-0.1,0.5-0.4,0.4-0.7c0-0.1,0-0.1-0.1-0.1c-0.2-0.3-0.5-0.4-0.8-0.3c0,0,0,0,0,0c-1.3,0.4-2.7,0.8-4.1,1.2c-1.8,0.3-3.5,1-5,1.9
	c-2.4,1.7-3.5,4.1-4,6.9c0,0.3,0.1,0.5,0.3,0.7c0.3,0.2,0.6,0.4,1,0.5c0.6,0.3,1.3,0.4,1.9,0.6c0.7,0.2,1.4,0.4,2.1,0.4h0.5
	c0.1,0,0.2,0,0.3,0c0.1,0,0.2,0,0.3,0c0.7,0,1.5,0,2.2-0.1c2.3-0.3,4.4-1.6,5.8-3.5c1-1.5,1.6-3.3,1.8-5.1c0.1-0.4,0.2-0.7,0.4-1.1
	c1.4-1.8,2.3-3.9,2.7-6.1c0.1-0.5,0.1-1,0.2-1.5c0.1,0.1,0.3,0.2,0.4,0.3c1,1.1,2.4,1.8,3.9,1.9c0.6,0.1,1.1-0.2,1.1-0.5
	S45.4,28,44.9,27.9z M38.4,11.1h-31H7.2c0.4-0.5,1-1.1,1.4-1.6c0.7-0.7,0.9-1.1,1.6-1.8c0.6-0.7,1.2-2,1.5-2.8
	c0.1-0.5,0.2-0.6,0.7-0.6c0.6,0,1.3,0,1.9,0h16.1c0.2,0,0.4,0,0.6,0c0.9,0,1.7,0,2.6,0c0.2,0,0.5,0.2,0.5,0.3
	c0.3,2.1,1.6,3.5,3.1,4.9c0.5,0.5,1.1,1.2,1.5,1.7H38.4z M39,21.2c0,0.2,0,0.5-0.2,0.7c-1.2,1.8-3,3.1-5,3.8c-0.8,0.3-1.6,0.3-2.3,0
	c-0.9-0.3-1.6-1-1.8-2c-0.1-1.2,0.3-2.4,1.1-3.3c0.5,0.6,0.9,1.2,1.3,1.7c0.1,0.2,0.3,0.4,0.5,0.5c0.3,0.1,0.6,0.1,0.9,0
	c0.2-0.2,0.2-0.5,0.1-0.8c-0.3-0.6-0.7-1.1-1.1-1.6c-0.8-0.8-0.8-0.8,0-1.5c0.4-0.3,0.8-0.6,1.2-0.9c0.4-0.3,0.6-0.2,0.8,0.2
	c0.4,0.6,0.9,1.2,1.3,1.8c0.1,0.1,0.1,0.2,0.2,0.2c0.2,0.3,0.7,0.4,1.1,0.2c0,0,0,0,0,0c0.4-0.3,0.3-0.7,0-1.1
	c-0.4-0.5-0.8-1-1.2-1.5c-0.2-0.2-0.4-0.4-0.6-0.8l3.6-1.1c0,0.2,0.1,0.3,0.1,0.5C39,18,39,19.6,39,21.2z"/>
<path id="TOP" d="M11.4,0c-0.5,0-0.8,0.1-0.8,0.7s0.4,0.6,0.8,0.6h23c0.5,0,0.8-0.1,0.8-0.7S34.8,0,34.4,0H11.4z"/>
</svg>
