<svg width="478" height="533" viewBox="0 0 478 533" fill="none" xmlns="http://www.w3.org/2000/svg">
<rect width="478" height="533" fill="white"/>
<g clip-path="url(#clip0)">
<path d="M386.901 239.373C414.376 211.889 422.237 175.193 404.459 157.409C386.681 139.626 349.996 147.489 322.521 174.973C295.045 202.457 287.184 239.153 304.962 256.937C322.74 274.721 359.426 266.857 386.901 239.373Z" fill="#F8B142"/>
<path d="M184.352 267.378C226.668 253.379 253.554 219.594 244.404 191.918C235.254 164.241 193.532 153.153 151.216 167.152C108.9 181.151 82.0139 214.936 91.1643 242.613C100.315 270.289 142.036 281.377 184.352 267.378Z" fill="#52B65F"/>
<path d="M324.45 466.696C366.766 452.697 393.652 418.912 384.502 391.236C375.352 363.559 333.63 352.471 291.314 366.47C248.998 380.469 222.112 414.254 231.262 441.93C240.413 469.607 282.134 480.695 324.45 466.696Z" fill="#52B65F"/>
<path d="M166.767 515.295C187.373 494.682 185.08 458.969 161.645 435.527C138.211 412.085 102.508 409.791 81.9014 430.404C61.2949 451.017 63.5878 486.73 87.0226 510.172C110.457 533.615 146.16 535.908 166.767 515.295Z" fill="#D02027"/>
<path d="M359.017 16.5592H118.983C116.787 16.5592 114.682 15.6869 113.13 14.1342C111.578 12.5814 110.706 10.4755 110.706 8.2796C110.529 7.15196 110.621 5.99849 110.974 4.9132C111.328 3.82792 111.933 2.84152 112.739 2.03442C113.546 1.22731 114.532 0.622334 115.617 0.26879C116.702 -0.0847533 117.855 -0.176857 118.983 -1.4762e-05H359.017C361.213 -1.4762e-05 363.318 0.872299 364.87 2.42503C366.422 3.97776 367.294 6.08371 367.294 8.2796C367.294 9.36689 367.08 10.4435 366.664 11.4481C366.248 12.4526 365.639 13.3653 364.87 14.1342C364.102 14.903 363.189 15.5129 362.185 15.929C361.181 16.345 360.104 16.5592 359.017 16.5592V16.5592Z" fill="black"/>
<path d="M314.528 410.876C312.954 410.793 311.435 410.262 310.152 409.345C308.869 408.428 307.875 407.164 307.286 405.701C306.855 403.645 307.132 401.504 308.071 399.625C309.01 397.746 310.556 396.24 312.459 395.351C413.853 360.163 404.541 276.332 404.541 273.227V127.299C391.091 114.88 351.775 74.5164 350.74 46.5727H126.225C121.052 75.5514 81.7359 112.81 71.3896 124.194V251.493C71.3896 253.689 70.5176 255.795 68.9653 257.348C67.4131 258.9 65.3078 259.773 63.1126 259.773C61.9853 259.95 60.8322 259.857 59.7472 259.504C58.6623 259.15 57.6762 258.545 56.8693 257.738C56.0625 256.931 55.4577 255.945 55.1042 254.86C54.7508 253.774 54.6587 252.621 54.8355 251.493V121.089C55.0427 118.889 55.7505 116.764 56.9048 114.88C78.6321 95.2155 111.74 57.9572 110.706 39.3281C110.913 37.1274 111.621 35.0033 112.775 33.1184C113.81 31.0485 115.879 31.0485 117.948 31.0485H357.983C359.209 30.8887 360.455 31.0988 361.561 31.652C362.667 32.2052 363.583 33.0762 364.19 34.1533C364.843 35.2285 365.271 36.4247 365.449 37.6698C365.627 38.9149 365.551 40.1831 365.225 41.398C360.052 53.8174 386.952 90.0407 415.922 116.949C417.991 117.984 417.991 120.054 417.991 122.124V270.122C417.991 270.122 428.338 369.478 315.563 407.771C316.597 409.841 315.563 410.876 314.528 410.876Z" fill="black"/>
<path d="M434.545 131.439H45.5238C43.3286 131.439 41.2233 130.566 39.6711 129.014C38.1188 127.461 37.2468 125.355 37.2468 123.159C37.236 122.114 37.4515 121.079 37.8783 120.125C38.3052 119.171 38.9333 118.321 39.7196 117.633C40.5059 116.944 41.4318 116.435 42.4337 116.138C43.4356 115.841 44.4897 115.765 45.5238 115.915H434.545C436.741 115.915 438.846 116.787 440.398 118.34C441.95 119.892 442.822 121.998 442.822 124.194C442.833 125.239 442.618 126.274 442.191 127.228C441.764 128.182 441.136 129.032 440.35 129.721C439.563 130.409 438.637 130.919 437.636 131.215C436.634 131.512 435.58 131.588 434.545 131.439V131.439Z" fill="black"/>
<path d="M469.723 307.381C455.351 306.337 441.578 301.203 430.029 292.584C418.479 283.965 409.635 272.221 404.541 258.738C403.685 257.754 403.074 256.581 402.756 255.316C402.439 254.051 402.426 252.728 402.717 251.456C403.007 250.185 403.595 249 404.43 247.998C405.266 246.997 406.326 246.207 407.525 245.693C408.723 245.179 410.026 244.956 411.328 245.041C412.629 245.127 413.892 245.519 415.013 246.185C416.134 246.851 417.082 247.773 417.779 248.876C418.477 249.978 418.904 251.229 419.026 252.528C423.124 263.166 430.165 272.417 439.326 279.198C448.487 285.98 459.39 290.011 470.758 290.821C472.769 291.075 474.617 292.058 475.952 293.584C477.287 295.11 478.016 297.073 478 299.101C476.965 304.276 473.861 307.381 469.723 307.381Z" fill="black"/>
<path d="M286.593 460.553C264.118 460.845 241.973 455.129 222.446 443.994C220.899 443.314 219.638 442.114 218.882 440.602C218.126 439.09 217.923 437.361 218.307 435.715C219.342 433.645 231.758 380.862 264.866 359.128C297.974 337.394 353.844 331.184 355.913 331.184C356.865 331.049 357.833 331.101 358.764 331.34C359.694 331.578 360.569 331.998 361.338 332.575C362.106 333.151 362.754 333.874 363.243 334.7C363.733 335.527 364.055 336.443 364.19 337.394C364.326 338.346 364.274 339.314 364.035 340.245C363.797 341.176 363.377 342.051 362.801 342.82C362.224 343.589 361.502 344.237 360.676 344.726C359.849 345.216 358.934 345.538 357.983 345.674C356.948 345.674 302.113 352.918 273.143 371.548C244.173 390.177 239 419.155 234.862 432.61C257.434 443.196 282.653 446.8 307.286 442.959C351.775 433.645 366.26 377.757 370.398 361.198C370.269 359.91 370.443 358.609 370.908 357.4C371.372 356.191 372.114 355.108 373.073 354.238C374.031 353.368 375.181 352.735 376.429 352.39C377.676 352.045 378.988 351.998 380.257 352.252C381.527 352.506 382.719 353.054 383.738 353.852C384.757 354.651 385.575 355.677 386.125 356.849C386.676 358.022 386.944 359.306 386.908 360.601C386.872 361.895 386.533 363.163 385.918 364.303C381.779 383.967 364.191 447.099 310.39 458.483C302.574 460.159 294.58 460.855 286.593 460.553V460.553Z" fill="black"/>
<path d="M345.567 531.965H126.225C107.997 531.718 90.5531 524.504 77.4714 511.804C64.3898 499.103 56.6611 481.877 55.8701 463.658V342.569C55.8701 316.695 83.8052 251.493 165.541 223.549C166.603 223.003 167.77 222.692 168.963 222.639C170.156 222.586 171.346 222.792 172.452 223.243C173.558 223.693 174.553 224.378 175.37 225.25C176.186 226.121 176.805 227.159 177.182 228.292C177.56 229.426 177.688 230.627 177.557 231.815C177.427 233.002 177.041 234.147 176.427 235.171C175.813 236.195 174.984 237.074 173.998 237.748C173.012 238.422 171.892 238.874 170.714 239.074C94.1515 263.913 71.3896 323.94 71.3896 342.569V463.658C72.4049 477.95 78.6765 491.36 88.9941 501.298C99.3118 511.237 112.944 517 127.26 517.476H346.602C382.814 517.476 405.576 491.602 405.576 465.728V378.792C405.576 376.596 406.448 374.49 408 372.938C409.552 371.385 411.658 370.513 413.853 370.513C414.98 370.336 416.133 370.428 417.218 370.781C418.303 371.135 419.289 371.74 420.096 372.547C420.903 373.354 421.508 374.34 421.861 375.426C422.215 376.511 422.307 377.665 422.13 378.792V465.728C420.543 484.584 411.645 502.07 397.337 514.448C383.03 526.826 364.449 533.113 345.567 531.965V531.965Z" fill="black"/>
<path d="M62.0779 390.177C60.6124 390.19 59.1697 389.814 57.8973 389.086C56.6248 388.359 55.5682 387.307 54.8355 386.037C50.5094 376.822 43.8328 368.909 35.4779 363.095C27.123 357.281 17.3844 353.771 7.24243 352.919C5.68908 352.232 4.38437 351.084 3.50528 349.631C2.62618 348.178 2.21525 346.489 2.32821 344.794C2.44116 343.099 3.07255 341.48 4.13673 340.156C5.20091 338.833 6.64638 337.868 8.27706 337.394C21.075 338.265 33.402 342.569 43.9617 349.854C54.5215 357.139 62.924 367.135 68.2857 378.792C68.7932 379.728 69.0884 380.763 69.1505 381.825C69.2125 382.888 69.0399 383.951 68.6448 384.939C68.2497 385.927 67.6419 386.816 66.8646 387.542C66.0872 388.268 65.1594 388.815 64.1472 389.142L62.0779 390.177Z" fill="black"/>
<path d="M123.121 297.031C121.2 297.031 119.358 296.268 118 294.909C116.642 293.551 115.879 291.708 115.879 289.787C115.863 287.759 116.592 285.796 117.927 284.269C119.261 282.743 121.11 281.76 123.121 281.507C124.156 281.507 184.165 277.367 214.169 253.563C231.664 238.012 243.037 216.727 246.242 193.536C236.931 186.291 205.892 167.662 160.368 187.326C114.844 206.99 108.636 269.087 108.636 272.192C108.162 273.824 107.198 275.269 105.875 276.334C104.552 277.398 102.933 278.03 101.239 278.143C99.5444 278.256 97.8562 277.845 96.4033 276.966C94.9504 276.086 93.8031 274.781 93.1169 273.227C93.1169 272.192 90.013 199.746 155.195 173.872C220.377 147.998 258.658 184.221 260.727 185.256C262.797 186.291 263.831 189.396 262.797 191.466C259.671 219.956 246.459 246.387 225.55 265.983C189.338 292.891 126.225 297.031 123.121 297.031V297.031Z" fill="black"/>
<path d="M186.234 533H184.165C182.122 532.292 180.437 530.813 179.471 528.879C178.504 526.945 178.332 524.71 178.991 522.65C184.068 507.84 183.735 491.71 178.053 477.122C172.371 462.534 161.707 450.43 147.952 442.959C100.359 415.015 70.355 462.623 69.3204 464.693C68.8448 465.577 68.2 466.358 67.4227 466.992C66.6453 467.626 65.7508 468.101 64.79 468.389C63.8293 468.677 62.8212 468.773 61.8233 468.672C60.8254 468.571 59.8572 468.274 58.974 467.798C58.0909 467.322 57.31 466.677 56.6761 465.9C56.0422 465.122 55.5675 464.227 55.2793 463.266C54.9911 462.305 54.8949 461.297 54.9963 460.299C55.0977 459.3 55.3946 458.332 55.8701 457.448C69.3204 435.714 106.567 401.561 155.195 429.505C171.971 438.895 184.901 453.9 191.713 471.882C198.525 489.864 198.783 509.672 192.442 527.825C192.442 531.965 189.338 533 186.234 533Z" fill="black"/>
<path d="M136.571 436.749H134.502C131.398 435.715 128.294 432.61 129.329 429.505C129.884 420.086 127.746 410.704 123.165 402.457C118.585 394.209 111.751 387.437 103.463 382.932C101.68 381.971 100.351 380.341 99.7684 378.4C99.1863 376.459 99.3989 374.367 100.359 372.582C101.32 370.798 102.949 369.469 104.89 368.887C106.83 368.304 108.922 368.517 110.706 369.478C126.252 378.716 137.715 393.511 142.779 410.876C149.497 404.512 157.493 399.651 166.234 396.618C174.975 393.584 184.262 392.447 193.476 393.282C194.754 392.91 196.103 392.852 197.408 393.113C198.713 393.374 199.936 393.946 200.973 394.78C202.01 395.614 202.831 396.686 203.366 397.905C203.9 399.125 204.133 400.455 204.045 401.783C203.956 403.111 203.549 404.399 202.857 405.536C202.165 406.673 201.21 407.627 200.071 408.316C198.932 409.005 197.644 409.41 196.316 409.495C194.988 409.58 193.659 409.344 192.442 408.806C182.827 407.998 173.178 409.896 164.585 414.285C155.992 418.674 148.797 425.38 143.814 433.645C142.907 434.66 141.788 435.465 140.537 436.001C139.286 436.538 137.932 436.793 136.571 436.749V436.749Z" fill="black"/>
<path d="M339.359 288.752H326.944C316.526 286.447 306.895 281.451 299.009 274.262C297.974 273.227 296.939 272.192 296.939 271.157C293.832 262.55 292.77 253.338 293.836 244.249C294.732 233.144 298.072 222.375 303.617 212.713C309.162 203.051 316.774 194.735 325.909 188.361C343.567 173.826 363.49 162.288 384.883 154.208C393.523 150.71 402.556 148.277 411.784 146.963C413.546 147.14 415.205 147.878 416.517 149.069C417.83 150.26 418.725 151.84 419.073 153.578C419.42 155.315 419.201 157.118 418.448 158.722C417.694 160.326 416.446 161.646 414.887 162.487C407.04 163.445 399.373 165.537 392.126 168.697C372.419 176.738 353.956 187.54 337.29 200.781C330 205.867 323.908 212.486 319.44 220.172C314.972 227.859 312.237 236.429 311.424 245.284C310.561 251.569 311.272 257.97 313.494 263.913C318.752 268.635 325.185 271.853 332.117 273.227C350.74 277.367 369.364 270.122 386.952 254.598C393.254 249.132 398.819 242.87 403.507 235.969L406.61 230.794C406.732 229.495 407.16 228.244 407.857 227.142C408.554 226.039 409.502 225.117 410.623 224.451C411.745 223.785 413.007 223.393 414.309 223.307C415.61 223.222 416.913 223.445 418.112 223.959C419.31 224.473 420.371 225.263 421.206 226.264C422.042 227.266 422.629 228.451 422.92 229.722C423.211 230.994 423.197 232.317 422.88 233.582C422.563 234.847 421.951 236.02 421.095 237.004C419.769 240.314 418.031 243.443 415.922 246.319C410.568 253.942 404.316 260.892 397.299 267.018C380.721 280.124 360.465 287.723 339.359 288.752V288.752Z" fill="black"/>
<path d="M274.178 300.136L269.004 298.066C267.549 296.528 266.738 294.491 266.738 292.374C266.738 290.256 267.549 288.219 269.004 286.682L286.593 270.122H284.524L266.935 267.018C265.647 267.147 264.347 266.972 263.138 266.508C261.93 266.043 260.847 265.302 259.977 264.342C259.108 263.383 258.475 262.233 258.13 260.985C257.785 259.737 257.738 258.425 257.991 257.156C258.245 255.886 258.793 254.693 259.592 253.674C260.39 252.654 261.416 251.836 262.588 251.286C263.76 250.735 265.044 250.467 266.338 250.503C267.632 250.539 268.9 250.878 270.039 251.493L287.628 254.598L305.216 258.738C306.682 259.183 308.015 259.982 309.098 261.065C310.181 262.148 310.98 263.482 311.424 264.948C311.893 266.477 311.843 268.118 311.282 269.616C310.72 271.114 309.679 272.384 308.32 273.227L292.801 285.647L278.316 299.101C278.316 300.136 276.247 300.136 274.178 300.136Z" fill="black"/>
<path d="M304.182 310.485C301.987 310.485 299.881 309.613 298.329 308.06C296.777 306.508 295.905 304.402 295.905 302.206V267.017C295.905 264.822 296.777 262.716 298.329 261.163C299.881 259.61 301.987 258.738 304.182 258.738C305.309 258.561 306.462 258.653 307.547 259.007C308.632 259.36 309.618 259.965 310.425 260.772C311.232 261.579 311.837 262.566 312.19 263.651C312.544 264.736 312.636 265.89 312.459 267.017V302.206C311.424 306.346 308.32 310.485 304.182 310.485Z" fill="black"/>
<path d="M380.745 214.235C378.353 214.039 376.129 212.927 374.537 211.13L350.74 180.082C349.876 178.407 349.609 176.488 349.983 174.641C350.357 172.794 351.349 171.13 352.796 169.923C354.244 168.717 356.059 168.041 357.942 168.006C359.826 167.971 361.665 168.58 363.156 169.732L386.952 200.781C388.276 202.447 388.907 204.56 388.714 206.68C388.522 208.8 387.52 210.764 385.918 212.165L380.745 214.235Z" fill="black"/>
<path d="M342.463 239.074C341.251 239.118 340.048 238.856 338.963 238.314C337.879 237.771 336.948 236.965 336.255 235.969L314.528 206.99C313.492 205.407 313.03 203.516 313.218 201.633C313.406 199.75 314.234 197.988 315.563 196.641C316.368 196.067 317.282 195.665 318.249 195.458C319.215 195.252 320.214 195.245 321.183 195.439C322.152 195.633 323.072 196.023 323.885 196.586C324.697 197.148 325.386 197.872 325.909 198.711L347.636 227.689C348.672 229.273 349.135 231.164 348.946 233.047C348.758 234.93 347.931 236.692 346.602 238.039L342.463 239.074Z" fill="black"/>
</g>
<defs>
<clipPath id="clip0">
<rect width="478" height="533" fill="white"/>
</clipPath>
</defs>
</svg>
